<?xml version="1.0" standalone="no"?>
<!DOCTYPE svg PUBLIC "-//W3C//DTD SVG 20010904//EN"
 "http://www.w3.org/TR/2001/REC-SVG-20010904/DTD/svg10.dtd">
<svg version="1.0" xmlns="http://www.w3.org/2000/svg"
 width="1200.000000pt" height="1200.000000pt" viewBox="0 0 1200.000000 1200.000000"
 preserveAspectRatio="xMidYMid meet">
<metadata>
Created by potrace 1.11, written by Peter Selinger 2001-2013
</metadata>
<g transform="translate(0.000000,1200.000000) scale(0.100000,-0.100000)"
fill="#000000" stroke="none">
<path d="M0 6000 l0 -6000 6000 0 6000 0 0 6000 0 6000 -6000 0 -6000 0 0
-6000z m3554 1959 c81 -23 166 -133 197 -259 23 -93 16 -231 -16 -330 -30 -93
-99 -237 -164 -344 -23 -37 -40 -71 -36 -74 3 -3 98 -9 211 -13 241 -8 236 -6
242 -104 4 -63 3 -66 -31 -100 l-35 -35 -283 -1 -284 0 -77 -103 -78 -103 -11
-219 c-15 -313 -3 -403 67 -467 40 -37 118 -53 181 -38 68 17 234 100 326 164
169 116 268 217 445 452 202 268 277 363 311 393 46 41 101 62 169 62 118 0
177 -47 170 -136 -5 -56 -29 -97 -123 -204 l-57 -65 7 -52 c3 -28 20 -98 37
-155 30 -98 31 -110 29 -261 -1 -89 2 -157 7 -155 5 1 85 41 178 86 l170 84
22 151 c26 177 79 422 122 558 38 124 57 142 149 147 61 4 71 2 91 -18 23 -23
23 -24 16 -221 -4 -110 -4 -199 1 -198 4 0 38 62 75 138 54 111 78 149 125
197 32 33 76 68 98 78 84 40 173 30 220 -25 33 -40 33 -97 0 -259 -50 -248
-23 -360 88 -360 47 0 125 19 133 32 4 6 17 68 30 138 26 142 57 236 115 351
45 91 90 133 165 155 70 20 117 12 156 -26 34 -35 36 -73 8 -155 -28 -81 -130
-612 -137 -711 -7 -107 2 -167 33 -204 22 -25 33 -30 70 -30 62 0 113 48 164
154 43 90 47 104 125 476 74 347 70 335 118 387 75 81 187 120 260 89 21 -8
41 -25 46 -39 7 -18 -6 -109 -45 -333 -88 -503 -146 -856 -140 -862 9 -8 107
61 174 122 61 58 217 240 238 279 17 32 60 232 84 392 11 77 27 164 36 194 40
138 102 227 180 257 39 15 52 15 99 5 72 -16 97 -47 89 -105 -4 -22 -39 -224
-79 -447 -74 -412 -77 -439 -47 -496 42 -77 178 -11 234 114 10 23 57 230 103
460 96 470 88 450 187 473 75 18 145 5 186 -36 l33 -33 -6 -98 c-4 -54 -32
-231 -62 -393 -94 -503 -77 -574 119 -491 94 40 252 147 337 226 l71 67 0
-159 0 -159 -68 -53 c-87 -68 -236 -153 -335 -191 -285 -110 -402 -74 -469
143 l-20 69 -72 -74 c-131 -135 -247 -205 -357 -215 -99 -9 -183 38 -221 124
l-19 43 -66 -56 c-64 -55 -211 -166 -306 -231 -25 -17 -53 -45 -61 -62 -10
-18 -30 -139 -51 -303 -40 -317 -59 -399 -121 -524 -61 -125 -133 -202 -231
-251 -72 -35 -84 -38 -184 -41 -206 -8 -327 63 -373 217 -40 136 -7 266 129
496 83 141 157 233 332 416 153 158 160 167 167 215 4 27 10 59 13 71 4 20 -4
16 -68 -26 -126 -84 -230 -107 -335 -76 -146 43 -245 176 -261 352 l-6 64 -31
-8 c-17 -4 -74 -8 -126 -8 -110 1 -153 17 -213 84 -62 68 -90 136 -117 284
-17 95 -24 116 -35 105 -3 -3 -64 -169 -136 -369 -149 -416 -170 -464 -219
-497 -82 -56 -207 14 -226 127 -3 20 -7 41 -9 48 -3 8 -37 -3 -102 -33 -277
-130 -620 -199 -818 -165 -82 14 -168 51 -209 89 -30 29 -76 115 -76 145 0 9
-4 17 -8 17 -4 0 -73 -36 -152 -80 -234 -130 -369 -178 -464 -166 -146 19
-258 134 -326 337 -61 180 -90 490 -71 756 6 93 14 178 17 189 5 20 -1 23
-108 42 -62 12 -137 24 -166 27 -72 9 -102 37 -109 97 -5 44 -4 47 28 64 28
16 64 19 215 22 l182 4 27 116 c78 331 202 611 334 754 98 106 168 134 265
107z"/>
<path d="M3425 7626 c-33 -33 -77 -124 -115 -236 -29 -89 -113 -411 -107 -416
1 -1 20 -4 41 -5 l39 -4 69 120 c126 222 198 413 184 490 -14 71 -67 95 -111
51z"/>
<path d="M4259 6048 c-74 -79 -157 -167 -184 -197 l-50 -53 58 -53 c79 -72
117 -89 184 -82 67 7 110 37 136 96 18 41 20 64 18 216 -2 165 -6 215 -20 215
-3 0 -67 -64 -142 -142z"/>
<path d="M6789 5013 c-97 -102 -191 -258 -253 -420 -57 -146 -45 -189 46 -181
92 9 144 86 212 310 31 103 64 308 55 337 -3 7 -29 -13 -60 -46z"/>
</g>
</svg>
